<svg xmlns="http://www.w3.org/2000/svg" version="1.1" xmlns:xlink="http://www.w3.org/1999/xlink" xmlns:svgjs="http://svgjs.dev/svgjs" width="2000" height="429" viewBox="0 0 2000 429"><g transform="matrix(1,0,0,1,-1.2121212121212466,0.3672885242568782)"><svg viewBox="0 0 396 85" data-background-color="#ffffff" preserveAspectRatio="xMidYMid meet" height="429" width="2000" xmlns="http://www.w3.org/2000/svg" xmlns:xlink="http://www.w3.org/1999/xlink"><g id="tight-bounds" transform="matrix(1,0,0,1,0.2400000000000091,-0.07277278452642122)"><svg viewBox="0 0 395.52 85.14554556905281" height="85.14554556905281" width="395.52"><g><svg viewBox="0 0 518.644800309964 111.6512299730591" height="85.14554556905281" width="395.52"><g transform="matrix(1,0,0,1,123.12480030996399,31.525028868277623)"><svg viewBox="0 0 395.52 48.60117223650386" height="48.60117223650386" width="395.52"><g id="textblocktransform"><svg viewBox="0 0 395.52 48.60117223650386" height="48.60117223650386" width="395.52" id="textblock"><g><svg viewBox="0 0 395.52 48.60117223650386" height="48.60117223650386" width="395.52"><g transform="matrix(1,0,0,1,0,0)"><svg width="395.52" viewBox="0.65 -35.45 291.72 35.85" height="48.60117223650386" data-palette-color="#ffa458"><path d="M16.7-35L28.3 0 24.1 0 20.6-11.05 8.05-11.05 4.6 0 0.65 0 12.15-35 16.7-35ZM9-14.3L19.75-14.3 14.4-31.2 9-14.3ZM37.25-19.1L37.25-19.1 37.25 0 33.5 0 33.5-25 35.9-25 36.5-22.05Q38.9-23.95 40.5-24.73 42.1-25.5 44.15-25.5L44.15-25.5Q45.15-25.5 45.65-25.4L45.65-25.4 46.35-25.2 45.75-21.75Q44.85-22.05 43.3-22.05L43.3-22.05Q40.3-22.05 37.25-19.1ZM52.65-5.4L52.65-5.4 52.65-22 49.25-22 49.25-25 52.7-25 52.7-32.15 56.45-32.15 56.45-25 62.55-25 62.55-22 56.4-22 56.4-6.1Q56.4-2.75 59.8-2.75L59.8-2.75Q60.6-2.75 62.25-3.05L62.25-3.05 62.8-0.35Q60.75 0.3 58.57 0.3 56.4 0.3 54.52-1.03 52.65-2.35 52.65-5.4ZM82.09 0.3L82.09 0.3Q74.94 0.3 71.12-4.53 67.29-9.35 67.29-17.6 67.29-25.85 71.34-30.65 75.39-35.45 82.64-35.45L82.64-35.45Q86.64-35.45 90.49-34L90.49-34 89.59-30.9Q86.54-32.2 82.39-32.2L82.39-32.2Q77.14-32.2 74.09-28.38 71.04-24.55 71.04-17.88 71.04-11.2 73.92-7.08 76.79-2.95 81.94-2.95L81.94-2.95Q85.34-2.95 90.49-4.9L90.49-4.9 91.49-2.3Q87.19 0.3 82.09 0.3ZM113.99-12.33Q113.99-17.15 112.09-19.7 110.19-22.25 106.54-22.25 102.89-22.25 101.37-19.83 99.84-17.4 99.84-12.4L99.84-12.4Q99.84-2.95 106.79-2.95L106.79-2.95Q110.44-2.95 112.22-5.23 113.99-7.5 113.99-12.33ZM114.89-3.1Q112.04 0.3 106.84 0.3 101.64 0.3 98.87-3.08 96.09-6.45 96.09-12.53 96.09-18.6 98.77-22.05 101.44-25.5 106.62-25.5 111.79-25.5 114.77-22 117.74-18.5 117.74-12.5 117.74-6.5 114.89-3.1ZM138.69-23L138.69-35 142.44-35 142.44 0 140.24 0 138.99-2.85Q134.39 0.4 130.99 0.4L130.99 0.4Q121.99 0.4 121.99-12.55L121.99-12.55Q121.99-19.9 125.19-22.8L125.19-22.8Q128.04-25.45 131.64-25.45 135.24-25.45 138.69-23L138.69-23ZM138.69-6.2L138.69-6.2 138.69-19.2Q137.64-20.45 135.91-21.35 134.19-22.25 132.74-22.25L132.74-22.25Q128.84-22.25 127.29-19.95 125.74-17.65 125.74-12.75 125.74-7.85 127.29-5.35 128.84-2.85 131.24-2.85L131.24-2.85Q134.84-2.85 138.69-6.2ZM168.89-11.7L168.89-11.7 152.94-11.7Q152.94-6.9 155.21-4.9 157.49-2.9 160.94-2.9L160.94-2.9Q162.69-2.9 163.39-3.08 164.09-3.25 164.71-3.43 165.34-3.6 165.59-3.7L165.59-3.7Q166.84-4.05 167.74-4.35L167.74-4.35 168.34-1.45Q163.34 0.3 160.54 0.3L160.54 0.3Q155.39 0.3 152.29-2.83 149.19-5.95 149.19-12.23 149.19-18.5 152.11-22 155.04-25.5 159.51-25.5 163.99-25.5 166.49-22.6 168.99-19.7 168.99-14.75L168.99-14.75Q168.99-13.4 168.89-11.7ZM153.19-14.55L153.19-14.55 165.39-14.55Q165.39-18.25 164.09-20.25 162.79-22.25 159.56-22.25 156.34-22.25 154.84-20.1 153.34-17.95 153.19-14.55ZM193.98-35L198.08-35 187.28 0 182.03 0 172.08-35 176.28-35 184.83-4.25 193.98-35ZM206.33 0L202.58 0 202.58-25 206.33-25 206.33 0ZM202.58-35L206.33-35 206.33-30.55 202.58-30.55 202.58-35ZM212.83-1.65L213.73-4.45Q216.98-2.95 219.93-2.95 222.88-2.95 224.4-4.13 225.93-5.3 225.93-7.25 225.93-9.2 224.63-10.28 223.33-11.35 221.45-11.95 219.58-12.55 217.7-13.25 215.83-13.95 214.53-15.35 213.23-16.75 213.23-18.9L213.23-18.9Q213.23-22.05 215.28-23.78 217.33-25.5 220.83-25.5 224.33-25.5 227.33-24.45L227.33-24.45 227.68-24.3 227.03-21.1Q224.03-22.25 221.45-22.25 218.88-22.25 217.93-21.45 216.98-20.65 216.98-18.75L216.98-18.75Q216.98-17.55 218.28-16.7 219.58-15.85 221.45-15.23 223.33-14.6 225.2-13.78 227.08-12.95 228.38-11.3 229.68-9.65 229.68-7.25L229.68-7.25Q229.68-3.75 227.23-1.73 224.78 0.3 220.48 0.3 216.18 0.3 212.83-1.65L212.83-1.65ZM239.53 0L235.78 0 235.78-25 239.53-25 239.53 0ZM235.78-35L239.53-35 239.53-30.55 235.78-30.55 235.78-35ZM263.32-12.33Q263.32-17.15 261.42-19.7 259.52-22.25 255.87-22.25 252.22-22.25 250.7-19.83 249.17-17.4 249.17-12.4L249.17-12.4Q249.17-2.95 256.12-2.95L256.12-2.95Q259.77-2.95 261.55-5.23 263.32-7.5 263.32-12.33ZM264.22-3.1Q261.37 0.3 256.17 0.3 250.97 0.3 248.2-3.08 245.42-6.45 245.42-12.53 245.42-18.6 248.1-22.05 250.77-25.5 255.95-25.5 261.12-25.5 264.1-22 267.07-18.5 267.07-12.5 267.07-6.5 264.22-3.1ZM277.52-19.85L277.52-19.85 277.52 0 273.77 0 273.77-25 276.17-25 276.77-22.55Q277.92-23.45 278.65-23.95 279.37-24.45 280.97-24.98 282.57-25.5 284.37-25.5L284.37-25.5Q287.82-25.5 290.1-23.38 292.37-21.25 292.37-17.35L292.37-17.35 292.37 0 288.62 0 288.62-16.25Q288.62-22.3 283.57-22.3L283.57-22.3Q279.97-22.3 277.52-19.85Z" opacity="1" transform="matrix(1,0,0,1,0,0)" fill="#ffa458" class="wordmark-text-0" data-fill-palette-color="primary" id="text-0"></path></svg></g></svg></g></svg></g></svg></g><g><svg viewBox="0 0 111.6512299730591 111.6512299730591" height="111.6512299730591" width="111.6512299730591"><g><svg></svg></g><g id="icon-0"><svg viewBox="0 0 111.6512299730591 111.6512299730591" height="111.6512299730591" width="111.6512299730591"><g><rect width="101.51991466068893" height="101.51991466068893" x="5.065657656185088" y="5.065657656185088" fill="#ba3b0a" data-fill-palette-color="accent"></rect><rect width="101.51991466068893" height="101.51991466068893" x="10.131315312370177" y="0" fill="#ba3b0a" opacity="0.5" data-fill-palette-color="accent"></rect></g><g transform="matrix(1,0,0,1,16.074821145733907,14.473307589100251)"><svg viewBox="0 0 79.50158768159129 82.7046147948586" height="82.7046147948586" width="79.50158768159129"><g><svg xmlns="http://www.w3.org/2000/svg" xmlns:xlink="http://www.w3.org/1999/xlink" version="1.1" x="0" y="0" viewBox="9.84 8.221999999999998 80.32 83.55600000000001" enable-background="new 0 0 100 100" xml:space="preserve" height="82.7046147948586" width="79.50158768159129" class="icon-cg-0" data-fill-palette-color="quaternary" id="cg-0"><g fill="#ffffff" data-fill-palette-color="quaternary"><path fill="none" d="M23.352 59.069c-1.719 0-3.117 1.399-3.117 3.119 0 1.719 1.398 3.118 3.117 3.118 1.721 0 3.119-1.399 3.119-3.118C26.471 60.469 25.072 59.069 23.352 59.069z"></path><path fill="none" d="M10.844 63.986c0 1.719 1.4 3.118 3.119 3.118s3.119-1.399 3.119-3.118c0-1.72-1.4-3.118-3.119-3.118S10.844 62.267 10.844 63.986z"></path><path fill="none" d="M23.418 27.693c0-1.719-1.4-3.118-3.119-3.118s-3.119 1.399-3.119 3.118c0 1.72 1.4 3.118 3.119 3.118S23.418 29.413 23.418 27.693z"></path><path fill="none" d="M20.336 42.986c-1.719 0-3.117 1.398-3.117 3.118 0 1.719 1.398 3.118 3.117 3.118 1.721 0 3.119-1.399 3.119-3.118C23.455 44.385 22.057 42.986 20.336 42.986z"></path><path fill="none" d="M54.449 15.463c1.721 0 3.119-1.398 3.119-3.118 0-1.719-1.398-3.118-3.119-3.118-1.719 0-3.117 1.399-3.117 3.118C51.332 14.064 52.73 15.463 54.449 15.463z"></path><path fill="none" d="M82.82 27.693c0-1.719-1.398-3.118-3.119-3.118-1.719 0-3.117 1.399-3.117 3.118 0 1.72 1.398 3.118 3.117 3.118C81.422 30.812 82.82 29.413 82.82 27.693z"></path><path fill="none" d="M32.938 15.695c-1.719 0-3.117 1.399-3.117 3.118 0 1.72 1.398 3.118 3.117 3.118 1.721 0 3.119-1.398 3.119-3.118C36.057 17.095 34.658 15.695 32.938 15.695z"></path><path fill="none" d="M79.664 49.223c1.719 0 3.117-1.399 3.117-3.118 0-1.72-1.398-3.118-3.117-3.118-1.721 0-3.117 1.398-3.117 3.118C76.547 47.823 77.943 49.223 79.664 49.223z"></path><path fill="none" d="M76.648 59.069c-1.721 0-3.119 1.399-3.119 3.119 0 1.719 1.398 3.118 3.119 3.118 1.719 0 3.117-1.399 3.117-3.118C79.766 60.469 78.367 59.069 76.648 59.069z"></path><path fill="none" d="M45.104 84.537c-1.719 0-3.117 1.398-3.117 3.118 0 1.719 1.398 3.118 3.117 3.118 1.721 0 3.119-1.399 3.119-3.118C48.223 85.936 46.824 84.537 45.104 84.537z"></path><path fill="none" d="M86.037 60.868c-1.719 0-3.117 1.398-3.117 3.118 0 1.719 1.398 3.118 3.117 3.118s3.119-1.399 3.119-3.118C89.156 62.267 87.756 60.868 86.037 60.868z"></path><path fill="none" d="M66.615 78.067c-1.719 0-3.117 1.399-3.117 3.119 0 1.719 1.398 3.118 3.117 3.118 1.721 0 3.119-1.399 3.119-3.118C69.734 79.467 68.336 78.067 66.615 78.067z"></path><path d="M63.457 67.553V32.697c0-0.903-0.516-1.636-1.154-1.636h-24.59c-0.637 0-1.154 0.732-1.154 1.636v34.855c0 0.903 0.518 1.636 1.154 1.636h24.59C62.941 69.188 63.457 68.456 63.457 67.553z" fill="#ffffff" data-fill-palette-color="quaternary"></path><path d="M45.904 19.316v4.305c-1.332 0.237-2.346 1.396-2.346 2.797 0 1.573 1.275 2.849 2.848 2.849 1.574 0 2.85-1.275 2.85-2.849 0-1.4-1.014-2.559-2.346-2.797v-4.808c0-0.277-0.225-0.502-0.504-0.502H37.01c-0.25-2.035-1.969-3.621-4.072-3.621-2.273 0-4.123 1.85-4.123 4.123s1.85 4.124 4.123 4.124c2.104 0 3.822-1.587 4.072-3.621H45.904zM32.938 21.932c-1.719 0-3.117-1.398-3.117-3.118 0-1.719 1.398-3.118 3.117-3.118 1.721 0 3.119 1.399 3.119 3.118C36.057 20.533 34.658 21.932 32.938 21.932z" fill="#ffffff" data-fill-palette-color="quaternary"></path><path d="M53.947 16.418v7.203c-1.332 0.238-2.346 1.396-2.346 2.797 0 1.573 1.275 2.849 2.848 2.849 1.574 0 2.85-1.275 2.85-2.849 0-1.401-1.016-2.56-2.348-2.797v-7.203c2.035-0.251 3.621-1.971 3.621-4.073 0-2.273-1.848-4.123-4.123-4.123-2.273 0-4.123 1.85-4.123 4.123C50.326 14.446 51.912 16.166 53.947 16.418zM54.449 9.227c1.721 0 3.119 1.399 3.119 3.118 0 1.72-1.398 3.118-3.119 3.118-1.719 0-3.117-1.398-3.117-3.118C51.332 10.626 52.73 9.227 54.449 9.227z" fill="#ffffff" data-fill-palette-color="quaternary"></path><path d="M66.615 77.063c-2.102 0-3.82 1.587-4.072 3.621h-8.895v-4.305c1.334-0.237 2.348-1.396 2.348-2.798 0-1.572-1.275-2.848-2.85-2.848-1.572 0-2.848 1.275-2.848 2.848 0 1.401 1.014 2.56 2.346 2.798v4.808c0 0.277 0.225 0.502 0.502 0.502h9.396c0.252 2.035 1.971 3.621 4.072 3.621 2.273 0 4.123-1.85 4.123-4.123C70.738 78.912 68.889 77.063 66.615 77.063zM66.615 84.305c-1.719 0-3.117-1.399-3.117-3.118 0-1.72 1.398-3.119 3.117-3.119 1.721 0 3.119 1.399 3.119 3.119C69.734 82.905 68.336 84.305 66.615 84.305z" fill="#ffffff" data-fill-palette-color="quaternary"></path><path d="M45.607 83.582v-7.203c1.332-0.238 2.346-1.396 2.346-2.798 0-1.572-1.275-2.848-2.85-2.848-1.572 0-2.848 1.275-2.848 2.848 0 1.401 1.014 2.561 2.346 2.798v7.203c-2.035 0.251-3.621 1.971-3.621 4.073 0 2.273 1.85 4.123 4.123 4.123s4.125-1.85 4.125-4.123C49.229 85.554 47.641 83.834 45.607 83.582zM45.104 90.773c-1.719 0-3.117-1.399-3.117-3.118 0-1.72 1.398-3.118 3.117-3.118 1.721 0 3.119 1.398 3.119 3.118C48.223 89.374 46.824 90.773 45.104 90.773z" fill="#ffffff" data-fill-palette-color="quaternary"></path><path d="M68.605 40.91c1.402 0 2.561-1.013 2.797-2.346h8.01c0.277 0 0.502-0.225 0.502-0.502v-6.26h-0.066c2.205-0.079 3.977-1.886 3.977-4.109 0-2.273-1.848-4.123-4.123-4.123-2.273 0-4.123 1.85-4.123 4.123 0 2.224 1.773 4.03 3.979 4.109h-0.648v5.757h-7.506c-0.236-1.333-1.395-2.346-2.797-2.346-1.572 0-2.848 1.275-2.848 2.849S67.033 40.91 68.605 40.91zM76.584 27.693c0-1.719 1.398-3.118 3.117-3.118 1.721 0 3.119 1.399 3.119 3.118 0 1.72-1.398 3.118-3.119 3.118C77.982 30.812 76.584 29.413 76.584 27.693z" fill="#ffffff" data-fill-palette-color="quaternary"></path><path d="M86.541 59.913v-5.995c0-0.277-0.225-0.502-0.504-0.502H71.348c-0.324-1.217-1.424-2.118-2.742-2.118-1.572 0-2.848 1.275-2.848 2.849s1.275 2.848 2.848 2.848c1.479 0 2.68-1.131 2.82-2.573h14.109v5.492c-2.035 0.252-3.621 1.972-3.621 4.073 0 2.273 1.85 4.123 4.123 4.123s4.123-1.85 4.123-4.123C90.16 61.885 88.574 60.165 86.541 59.913zM86.037 67.104c-1.719 0-3.117-1.399-3.117-3.118 0-1.72 1.398-3.118 3.117-3.118s3.119 1.398 3.119 3.118C89.156 65.705 87.756 67.104 86.037 67.104z" fill="#ffffff" data-fill-palette-color="quaternary"></path><path d="M68.605 48.952c1.402 0 2.561-1.014 2.799-2.346h4.188c0.25 2.035 1.971 3.621 4.072 3.621 2.273 0 4.123-1.85 4.123-4.123s-1.85-4.124-4.123-4.124c-2.102 0-3.82 1.587-4.072 3.62h-4.188c-0.238-1.332-1.398-2.345-2.799-2.345-1.572 0-2.848 1.275-2.848 2.849S67.033 48.952 68.605 48.952zM79.664 42.986c1.719 0 3.117 1.398 3.117 3.118 0 1.719-1.398 3.118-3.117 3.118-1.721 0-3.117-1.399-3.117-3.118C76.547 44.385 77.943 42.986 79.664 42.986z" fill="#ffffff" data-fill-palette-color="quaternary"></path><path d="M76.648 58.064c-2.102 0-3.82 1.587-4.072 3.62h-1.172c-0.238-1.332-1.398-2.345-2.799-2.345-1.572 0-2.848 1.275-2.848 2.849s1.275 2.848 2.848 2.848c1.402 0 2.561-1.014 2.799-2.346h1.172c0.25 2.035 1.971 3.621 4.072 3.621 2.273 0 4.123-1.85 4.123-4.123S78.922 58.064 76.648 58.064zM76.648 65.307c-1.721 0-3.119-1.399-3.119-3.118 0-1.72 1.398-3.119 3.119-3.119 1.719 0 3.117 1.399 3.117 3.119C79.766 63.907 78.367 65.307 76.648 65.307z" fill="#ffffff" data-fill-palette-color="quaternary"></path><path d="M31.395 35.214c-1.4 0-2.559 1.013-2.797 2.346h-7.506v-5.757h-0.648c2.205-0.079 3.979-1.886 3.979-4.109 0-2.273-1.85-4.123-4.123-4.123s-4.123 1.85-4.123 4.123c0 2.224 1.771 4.03 3.977 4.109h-0.066v6.26c0 0.277 0.225 0.502 0.502 0.502h8.01c0.238 1.333 1.396 2.346 2.797 2.346 1.574 0 2.848-1.274 2.848-2.848S32.969 35.214 31.395 35.214zM17.18 27.693c0-1.719 1.4-3.118 3.119-3.118s3.119 1.399 3.119 3.118c0 1.72-1.4 3.118-3.119 3.118S17.18 29.413 17.18 27.693z" fill="#ffffff" data-fill-palette-color="quaternary"></path><path d="M31.395 51.298c-1.318 0-2.418 0.901-2.742 2.118H13.963c-0.277 0-0.504 0.225-0.504 0.502v5.995c-2.033 0.252-3.619 1.972-3.619 4.073 0 2.273 1.85 4.123 4.123 4.123s4.123-1.85 4.123-4.123c0-2.102-1.586-3.821-3.621-4.073v-5.492h14.109c0.141 1.442 1.342 2.573 2.82 2.573 1.574 0 2.848-1.274 2.848-2.848S32.969 51.298 31.395 51.298zM17.082 63.986c0 1.719-1.4 3.118-3.119 3.118s-3.119-1.399-3.119-3.118c0-1.72 1.4-3.118 3.119-3.118S17.082 62.267 17.082 63.986z" fill="#ffffff" data-fill-palette-color="quaternary"></path><path d="M31.395 43.256c-1.4 0-2.559 1.013-2.799 2.345h-4.188c-0.25-2.033-1.971-3.62-4.072-3.62-2.273 0-4.123 1.851-4.123 4.124s1.85 4.123 4.123 4.123c2.102 0 3.822-1.586 4.072-3.621h4.188c0.238 1.332 1.398 2.346 2.799 2.346 1.572 0 2.848-1.274 2.848-2.848S32.967 43.256 31.395 43.256zM20.336 49.223c-1.719 0-3.117-1.399-3.117-3.118 0-1.72 1.398-3.118 3.117-3.118 1.721 0 3.119 1.398 3.119 3.118C23.455 47.823 22.057 49.223 20.336 49.223z" fill="#ffffff" data-fill-palette-color="quaternary"></path><path d="M31.395 59.34c-1.4 0-2.559 1.013-2.799 2.345h-1.172c-0.25-2.033-1.971-3.62-4.072-3.62-2.273 0-4.123 1.851-4.123 4.124s1.85 4.123 4.123 4.123c2.102 0 3.822-1.586 4.072-3.621h1.172c0.238 1.332 1.398 2.346 2.799 2.346 1.572 0 2.848-1.274 2.848-2.848S32.967 59.34 31.395 59.34zM23.352 65.307c-1.719 0-3.117-1.399-3.117-3.118 0-1.72 1.398-3.119 3.117-3.119 1.721 0 3.119 1.399 3.119 3.119C26.471 63.907 25.072 65.307 23.352 65.307z" fill="#ffffff" data-fill-palette-color="quaternary"></path></g></svg></g></svg></g></svg></g></svg></g></svg></g><defs></defs></svg><rect width="395.52" height="85.14554556905281" fill="none" stroke="none" visibility="hidden"></rect></g></svg></g></svg>